<mxfile host="app.diagrams.net" agent="Mozilla/5.0 (Windows NT 10.0; Win64; x64) AppleWebKit/537.36 (KHTML, like Gecko) Chrome/135.0.0.0 Safari/537.36" version="26.0.1" pages="2">
  <diagram name="PÃ¡gina-1" id="CeTlxnZe04kdHjnrQJCF">
    <mxGraphModel dx="1120" dy="426" grid="1" gridSize="10" guides="1" tooltips="1" connect="1" arrows="1" fold="1" page="1" pageScale="1" pageWidth="827" pageHeight="1169" math="0" shadow="0">
      <root>
        <mxCell id="0" />
        <mxCell id="1" parent="0" />
        <mxCell id="y-xu5Mo-Nd6bHVeIBce_-13" style="edgeStyle=orthogonalEdgeStyle;rounded=0;orthogonalLoop=1;jettySize=auto;html=1;exitX=1;exitY=0.5;exitDx=0;exitDy=0;entryX=0.5;entryY=0;entryDx=0;entryDy=0;" parent="1" source="y-xu5Mo-Nd6bHVeIBce_-1" target="y-xu5Mo-Nd6bHVeIBce_-10" edge="1">
          <mxGeometry relative="1" as="geometry" />
        </mxCell>
        <mxCell id="y-xu5Mo-Nd6bHVeIBce_-14" value="" style="edgeStyle=orthogonalEdgeStyle;rounded=0;orthogonalLoop=1;jettySize=auto;html=1;" parent="1" source="y-xu5Mo-Nd6bHVeIBce_-1" target="y-xu5Mo-Nd6bHVeIBce_-7" edge="1">
          <mxGeometry relative="1" as="geometry" />
        </mxCell>
        <mxCell id="y-xu5Mo-Nd6bHVeIBce_-15" style="edgeStyle=orthogonalEdgeStyle;rounded=0;orthogonalLoop=1;jettySize=auto;html=1;" parent="1" source="y-xu5Mo-Nd6bHVeIBce_-1" target="y-xu5Mo-Nd6bHVeIBce_-6" edge="1">
          <mxGeometry relative="1" as="geometry" />
        </mxCell>
        <mxCell id="y-xu5Mo-Nd6bHVeIBce_-16" style="edgeStyle=orthogonalEdgeStyle;rounded=0;orthogonalLoop=1;jettySize=auto;html=1;exitX=0;exitY=0.25;exitDx=0;exitDy=0;entryX=0.5;entryY=0;entryDx=0;entryDy=0;" parent="1" source="y-xu5Mo-Nd6bHVeIBce_-1" target="y-xu5Mo-Nd6bHVeIBce_-5" edge="1">
          <mxGeometry relative="1" as="geometry" />
        </mxCell>
        <mxCell id="y-xu5Mo-Nd6bHVeIBce_-29" style="edgeStyle=orthogonalEdgeStyle;rounded=0;orthogonalLoop=1;jettySize=auto;html=1;exitX=1;exitY=0.75;exitDx=0;exitDy=0;entryX=0.5;entryY=0;entryDx=0;entryDy=0;" parent="1" source="y-xu5Mo-Nd6bHVeIBce_-1" target="y-xu5Mo-Nd6bHVeIBce_-9" edge="1">
          <mxGeometry relative="1" as="geometry" />
        </mxCell>
        <mxCell id="y-xu5Mo-Nd6bHVeIBce_-31" style="edgeStyle=orthogonalEdgeStyle;rounded=0;orthogonalLoop=1;jettySize=auto;html=1;exitX=1;exitY=1;exitDx=0;exitDy=0;entryX=0.5;entryY=0;entryDx=0;entryDy=0;" parent="1" source="y-xu5Mo-Nd6bHVeIBce_-1" target="y-xu5Mo-Nd6bHVeIBce_-8" edge="1">
          <mxGeometry relative="1" as="geometry">
            <Array as="points">
              <mxPoint x="474" y="100" />
              <mxPoint x="570" y="100" />
            </Array>
          </mxGeometry>
        </mxCell>
        <mxCell id="y-xu5Mo-Nd6bHVeIBce_-1" value="FRONT" style="rounded=1;whiteSpace=wrap;html=1;" parent="1" vertex="1">
          <mxGeometry x="354" y="30" width="120" height="60" as="geometry" />
        </mxCell>
        <mxCell id="y-xu5Mo-Nd6bHVeIBce_-46" value="" style="edgeStyle=orthogonalEdgeStyle;rounded=0;orthogonalLoop=1;jettySize=auto;html=1;" parent="1" source="y-xu5Mo-Nd6bHVeIBce_-2" target="y-xu5Mo-Nd6bHVeIBce_-44" edge="1">
          <mxGeometry relative="1" as="geometry" />
        </mxCell>
        <mxCell id="y-xu5Mo-Nd6bHVeIBce_-58" style="edgeStyle=orthogonalEdgeStyle;rounded=0;orthogonalLoop=1;jettySize=auto;html=1;" parent="1" source="y-xu5Mo-Nd6bHVeIBce_-2" target="y-xu5Mo-Nd6bHVeIBce_-57" edge="1">
          <mxGeometry relative="1" as="geometry" />
        </mxCell>
        <mxCell id="y-xu5Mo-Nd6bHVeIBce_-60" style="edgeStyle=orthogonalEdgeStyle;rounded=0;orthogonalLoop=1;jettySize=auto;html=1;exitX=0;exitY=1;exitDx=0;exitDy=0;entryX=1;entryY=0.5;entryDx=0;entryDy=0;" parent="1" source="y-xu5Mo-Nd6bHVeIBce_-2" target="y-xu5Mo-Nd6bHVeIBce_-59" edge="1">
          <mxGeometry relative="1" as="geometry" />
        </mxCell>
        <mxCell id="y-xu5Mo-Nd6bHVeIBce_-62" style="edgeStyle=orthogonalEdgeStyle;rounded=0;orthogonalLoop=1;jettySize=auto;html=1;" parent="1" source="y-xu5Mo-Nd6bHVeIBce_-2" edge="1">
          <mxGeometry relative="1" as="geometry">
            <mxPoint x="860" y="520" as="targetPoint" />
          </mxGeometry>
        </mxCell>
        <mxCell id="y-xu5Mo-Nd6bHVeIBce_-2" value="BACK" style="rounded=1;whiteSpace=wrap;html=1;" parent="1" vertex="1">
          <mxGeometry x="382" y="400" width="120" height="60" as="geometry" />
        </mxCell>
        <mxCell id="y-xu5Mo-Nd6bHVeIBce_-19" value="" style="edgeStyle=orthogonalEdgeStyle;rounded=0;orthogonalLoop=1;jettySize=auto;html=1;" parent="1" source="y-xu5Mo-Nd6bHVeIBce_-5" target="y-xu5Mo-Nd6bHVeIBce_-17" edge="1">
          <mxGeometry relative="1" as="geometry" />
        </mxCell>
        <mxCell id="y-xu5Mo-Nd6bHVeIBce_-5" value="CAMPEONATOS" style="rounded=0;whiteSpace=wrap;html=1;" parent="1" vertex="1">
          <mxGeometry x="60" y="150" width="120" height="40" as="geometry" />
        </mxCell>
        <mxCell id="y-xu5Mo-Nd6bHVeIBce_-23" value="" style="edgeStyle=orthogonalEdgeStyle;rounded=0;orthogonalLoop=1;jettySize=auto;html=1;" parent="1" source="y-xu5Mo-Nd6bHVeIBce_-6" target="y-xu5Mo-Nd6bHVeIBce_-20" edge="1">
          <mxGeometry relative="1" as="geometry" />
        </mxCell>
        <mxCell id="y-xu5Mo-Nd6bHVeIBce_-6" value="USUARIOS" style="rounded=0;whiteSpace=wrap;html=1;" parent="1" vertex="1">
          <mxGeometry x="210" y="150" width="120" height="40" as="geometry" />
        </mxCell>
        <mxCell id="y-xu5Mo-Nd6bHVeIBce_-22" value="" style="edgeStyle=orthogonalEdgeStyle;rounded=0;orthogonalLoop=1;jettySize=auto;html=1;" parent="1" source="y-xu5Mo-Nd6bHVeIBce_-7" target="y-xu5Mo-Nd6bHVeIBce_-21" edge="1">
          <mxGeometry relative="1" as="geometry" />
        </mxCell>
        <mxCell id="y-xu5Mo-Nd6bHVeIBce_-7" value="EQUIPES" style="rounded=0;whiteSpace=wrap;html=1;" parent="1" vertex="1">
          <mxGeometry x="354" y="150" width="120" height="40" as="geometry" />
        </mxCell>
        <mxCell id="y-xu5Mo-Nd6bHVeIBce_-25" value="" style="edgeStyle=orthogonalEdgeStyle;rounded=0;orthogonalLoop=1;jettySize=auto;html=1;" parent="1" source="y-xu5Mo-Nd6bHVeIBce_-8" target="y-xu5Mo-Nd6bHVeIBce_-24" edge="1">
          <mxGeometry relative="1" as="geometry" />
        </mxCell>
        <mxCell id="y-xu5Mo-Nd6bHVeIBce_-8" value="HISTORICO DE CAMPEONATO" style="rounded=0;whiteSpace=wrap;html=1;" parent="1" vertex="1">
          <mxGeometry x="510" y="150" width="120" height="40" as="geometry" />
        </mxCell>
        <mxCell id="y-xu5Mo-Nd6bHVeIBce_-27" value="" style="edgeStyle=orthogonalEdgeStyle;rounded=0;orthogonalLoop=1;jettySize=auto;html=1;" parent="1" source="y-xu5Mo-Nd6bHVeIBce_-9" target="y-xu5Mo-Nd6bHVeIBce_-26" edge="1">
          <mxGeometry relative="1" as="geometry" />
        </mxCell>
        <mxCell id="y-xu5Mo-Nd6bHVeIBce_-9" value="TITULOS" style="rounded=0;whiteSpace=wrap;html=1;" parent="1" vertex="1">
          <mxGeometry x="668" y="150" width="120" height="40" as="geometry" />
        </mxCell>
        <mxCell id="y-xu5Mo-Nd6bHVeIBce_-32" style="edgeStyle=orthogonalEdgeStyle;rounded=0;orthogonalLoop=1;jettySize=auto;html=1;" parent="1" source="y-xu5Mo-Nd6bHVeIBce_-10" target="y-xu5Mo-Nd6bHVeIBce_-2" edge="1">
          <mxGeometry relative="1" as="geometry">
            <Array as="points">
              <mxPoint x="870" y="360" />
              <mxPoint x="442" y="360" />
            </Array>
          </mxGeometry>
        </mxCell>
        <mxCell id="y-xu5Mo-Nd6bHVeIBce_-10" value="CUPS" style="rounded=0;whiteSpace=wrap;html=1;" parent="1" vertex="1">
          <mxGeometry x="810" y="150" width="120" height="40" as="geometry" />
        </mxCell>
        <mxCell id="y-xu5Mo-Nd6bHVeIBce_-17" value="TAB_CAMPEONATOS" style="shape=cylinder3;whiteSpace=wrap;html=1;boundedLbl=1;backgroundOutline=1;size=15;" parent="1" vertex="1">
          <mxGeometry x="55" y="250" width="130" height="80" as="geometry" />
        </mxCell>
        <mxCell id="y-xu5Mo-Nd6bHVeIBce_-20" value="TAB_USUARIOS" style="shape=cylinder3;whiteSpace=wrap;html=1;boundedLbl=1;backgroundOutline=1;size=15;" parent="1" vertex="1">
          <mxGeometry x="222.5" y="250" width="95" height="80" as="geometry" />
        </mxCell>
        <mxCell id="y-xu5Mo-Nd6bHVeIBce_-21" value="TAB&lt;span style=&quot;background-color: initial;&quot;&gt;_EQUIPES&lt;/span&gt;" style="shape=cylinder3;whiteSpace=wrap;html=1;boundedLbl=1;backgroundOutline=1;size=15;" parent="1" vertex="1">
          <mxGeometry x="366" y="250" width="96" height="80" as="geometry" />
        </mxCell>
        <mxCell id="y-xu5Mo-Nd6bHVeIBce_-24" value="&lt;font style=&quot;font-size: 8px;&quot;&gt;TAB&lt;span style=&quot;background-color: initial;&quot;&gt;_HISTORICO_CAMPEONATOS&lt;/span&gt;&lt;/font&gt;&lt;div style=&quot;font-size: 11px;&quot;&gt;&lt;span style=&quot;background-color: initial;&quot;&gt;&lt;br&gt;&lt;/span&gt;&lt;/div&gt;" style="shape=cylinder3;whiteSpace=wrap;html=1;boundedLbl=1;backgroundOutline=1;size=15;" parent="1" vertex="1">
          <mxGeometry x="502" y="250" width="136" height="80" as="geometry" />
        </mxCell>
        <mxCell id="y-xu5Mo-Nd6bHVeIBce_-26" value="&lt;font style=&quot;font-size: 8px;&quot;&gt;TAB&lt;span style=&quot;background-color: initial;&quot;&gt;_TITULOS&lt;/span&gt;&lt;/font&gt;&lt;div style=&quot;font-size: 11px;&quot;&gt;&lt;span style=&quot;background-color: initial;&quot;&gt;&lt;br&gt;&lt;/span&gt;&lt;/div&gt;" style="shape=cylinder3;whiteSpace=wrap;html=1;boundedLbl=1;backgroundOutline=1;size=15;" parent="1" vertex="1">
          <mxGeometry x="660" y="250" width="136" height="80" as="geometry" />
        </mxCell>
        <mxCell id="y-xu5Mo-Nd6bHVeIBce_-33" value="GET" style="text;html=1;align=center;verticalAlign=middle;resizable=0;points=[];autosize=1;strokeColor=none;fillColor=none;" parent="1" vertex="1">
          <mxGeometry x="520" y="120" width="50" height="30" as="geometry" />
        </mxCell>
        <mxCell id="y-xu5Mo-Nd6bHVeIBce_-34" value="GET" style="text;html=1;align=center;verticalAlign=middle;resizable=0;points=[];autosize=1;strokeColor=none;fillColor=none;" parent="1" vertex="1">
          <mxGeometry x="680" y="120" width="50" height="30" as="geometry" />
        </mxCell>
        <mxCell id="y-xu5Mo-Nd6bHVeIBce_-38" value="" style="edgeStyle=orthogonalEdgeStyle;rounded=0;orthogonalLoop=1;jettySize=auto;html=1;" parent="1" source="y-xu5Mo-Nd6bHVeIBce_-35" target="y-xu5Mo-Nd6bHVeIBce_-37" edge="1">
          <mxGeometry relative="1" as="geometry" />
        </mxCell>
        <mxCell id="y-xu5Mo-Nd6bHVeIBce_-35" value="AMISTOSO" style="rounded=0;whiteSpace=wrap;html=1;" parent="1" vertex="1">
          <mxGeometry x="950" y="150" width="120" height="40" as="geometry" />
        </mxCell>
        <mxCell id="y-xu5Mo-Nd6bHVeIBce_-36" style="edgeStyle=orthogonalEdgeStyle;rounded=0;orthogonalLoop=1;jettySize=auto;html=1;exitX=1;exitY=0.25;exitDx=0;exitDy=0;entryX=0.583;entryY=0;entryDx=0;entryDy=0;entryPerimeter=0;" parent="1" source="y-xu5Mo-Nd6bHVeIBce_-1" target="y-xu5Mo-Nd6bHVeIBce_-35" edge="1">
          <mxGeometry relative="1" as="geometry" />
        </mxCell>
        <mxCell id="y-xu5Mo-Nd6bHVeIBce_-37" value="&lt;font style=&quot;font-size: 12px;&quot;&gt;TAB_AMISTOSO&lt;br&gt;&lt;/font&gt;&lt;div style=&quot;&quot;&gt;&lt;span style=&quot;background-color: initial;&quot;&gt;&lt;br&gt;&lt;/span&gt;&lt;/div&gt;" style="shape=cylinder3;whiteSpace=wrap;html=1;boundedLbl=1;backgroundOutline=1;size=15;" parent="1" vertex="1">
          <mxGeometry x="961" y="250" width="98" height="80" as="geometry" />
        </mxCell>
        <mxCell id="y-xu5Mo-Nd6bHVeIBce_-44" value="gerarTabelaJogos" style="rounded=0;whiteSpace=wrap;html=1;" parent="1" vertex="1">
          <mxGeometry x="382" y="540" width="120" height="40" as="geometry" />
        </mxCell>
        <mxCell id="y-xu5Mo-Nd6bHVeIBce_-48" value="gerarTabelaPontos" style="rounded=0;whiteSpace=wrap;html=1;" parent="1" vertex="1">
          <mxGeometry x="518" y="540" width="120" height="40" as="geometry" />
        </mxCell>
        <mxCell id="y-xu5Mo-Nd6bHVeIBce_-49" style="edgeStyle=orthogonalEdgeStyle;rounded=0;orthogonalLoop=1;jettySize=auto;html=1;entryX=0.551;entryY=-0.021;entryDx=0;entryDy=0;entryPerimeter=0;" parent="1" source="y-xu5Mo-Nd6bHVeIBce_-2" target="y-xu5Mo-Nd6bHVeIBce_-48" edge="1">
          <mxGeometry relative="1" as="geometry" />
        </mxCell>
        <mxCell id="y-xu5Mo-Nd6bHVeIBce_-57" value="iniciarCampeonatoAmisoto" style="rounded=0;whiteSpace=wrap;html=1;" parent="1" vertex="1">
          <mxGeometry x="140" y="410" width="164" height="40" as="geometry" />
        </mxCell>
        <mxCell id="y-xu5Mo-Nd6bHVeIBce_-59" value="finalizarCampeonatoAmisoto" style="rounded=0;whiteSpace=wrap;html=1;" parent="1" vertex="1">
          <mxGeometry x="140" y="470" width="164" height="40" as="geometry" />
        </mxCell>
        <mxCell id="y-xu5Mo-Nd6bHVeIBce_-61" value="FILTROS" style="text;html=1;align=center;verticalAlign=middle;resizable=0;points=[];autosize=1;strokeColor=none;fillColor=none;" parent="1" vertex="1">
          <mxGeometry x="598" y="118" width="70" height="30" as="geometry" />
        </mxCell>
        <mxCell id="y-xu5Mo-Nd6bHVeIBce_-63" value="salvaCampeonatos" style="rounded=0;whiteSpace=wrap;html=1;" parent="1" vertex="1">
          <mxGeometry x="796" y="520" width="120" height="40" as="geometry" />
        </mxCell>
        <mxCell id="y-xu5Mo-Nd6bHVeIBce_-64" value="&lt;font style=&quot;font-size: 8px;&quot;&gt;TAB&lt;span style=&quot;background-color: initial;&quot;&gt;_HISTORICO_CAMPEONATOS&lt;/span&gt;&lt;/font&gt;&lt;div style=&quot;font-size: 11px;&quot;&gt;&lt;span style=&quot;background-color: initial;&quot;&gt;&lt;br&gt;&lt;/span&gt;&lt;/div&gt;" style="shape=cylinder3;whiteSpace=wrap;html=1;boundedLbl=1;backgroundOutline=1;size=15;" parent="1" vertex="1">
          <mxGeometry x="700" y="640" width="136" height="80" as="geometry" />
        </mxCell>
        <mxCell id="y-xu5Mo-Nd6bHVeIBce_-65" value="&lt;font style=&quot;font-size: 8px;&quot;&gt;TAB&lt;span style=&quot;background-color: initial;&quot;&gt;_TITULOS&lt;/span&gt;&lt;/font&gt;&lt;div style=&quot;font-size: 11px;&quot;&gt;&lt;span style=&quot;background-color: initial;&quot;&gt;&lt;br&gt;&lt;/span&gt;&lt;/div&gt;" style="shape=cylinder3;whiteSpace=wrap;html=1;boundedLbl=1;backgroundOutline=1;size=15;" parent="1" vertex="1">
          <mxGeometry x="930" y="640" width="136" height="80" as="geometry" />
        </mxCell>
        <mxCell id="y-xu5Mo-Nd6bHVeIBce_-66" style="edgeStyle=orthogonalEdgeStyle;rounded=0;orthogonalLoop=1;jettySize=auto;html=1;entryX=0.5;entryY=0;entryDx=0;entryDy=0;entryPerimeter=0;" parent="1" source="y-xu5Mo-Nd6bHVeIBce_-63" target="y-xu5Mo-Nd6bHVeIBce_-64" edge="1">
          <mxGeometry relative="1" as="geometry" />
        </mxCell>
        <mxCell id="y-xu5Mo-Nd6bHVeIBce_-67" style="edgeStyle=orthogonalEdgeStyle;rounded=0;orthogonalLoop=1;jettySize=auto;html=1;entryX=0.5;entryY=0;entryDx=0;entryDy=0;entryPerimeter=0;" parent="1" source="y-xu5Mo-Nd6bHVeIBce_-63" target="y-xu5Mo-Nd6bHVeIBce_-65" edge="1">
          <mxGeometry relative="1" as="geometry">
            <Array as="points">
              <mxPoint x="856" y="600" />
              <mxPoint x="998" y="600" />
            </Array>
          </mxGeometry>
        </mxCell>
      </root>
    </mxGraphModel>
  </diagram>
  <diagram id="DAnMVXbRNPNyle5yExTI" name="PÃ¡gina-2">
    <mxGraphModel dx="1035" dy="501" grid="1" gridSize="10" guides="1" tooltips="1" connect="1" arrows="1" fold="1" page="1" pageScale="1" pageWidth="827" pageHeight="1169" math="0" shadow="0">
      <root>
        <mxCell id="0" />
        <mxCell id="1" parent="0" />
        <mxCell id="tjNxio7LxQfoufPtZ_6Z-3" value="Reprodutor Musical" style="swimlane;whiteSpace=wrap;html=1;" vertex="1" parent="1">
          <mxGeometry x="40" y="180" width="200" height="110" as="geometry" />
        </mxCell>
        <mxCell id="tjNxio7LxQfoufPtZ_6Z-4" value="&lt;div&gt;public void tocar();&lt;/div&gt;&lt;div&gt;&amp;nbsp; &amp;nbsp; public void pausar();&lt;/div&gt;&lt;div&gt;&amp;nbsp; &amp;nbsp; public void selecionarMusica();&lt;/div&gt;" style="text;html=1;align=center;verticalAlign=middle;resizable=0;points=[];autosize=1;strokeColor=none;fillColor=none;" vertex="1" parent="tjNxio7LxQfoufPtZ_6Z-3">
          <mxGeometry y="30" width="200" height="60" as="geometry" />
        </mxCell>
        <mxCell id="tjNxio7LxQfoufPtZ_6Z-6" style="edgeStyle=orthogonalEdgeStyle;rounded=0;orthogonalLoop=1;jettySize=auto;html=1;" edge="1" parent="1" source="tjNxio7LxQfoufPtZ_6Z-5" target="tjNxio7LxQfoufPtZ_6Z-3">
          <mxGeometry relative="1" as="geometry" />
        </mxCell>
        <mxCell id="tjNxio7LxQfoufPtZ_6Z-11" style="edgeStyle=orthogonalEdgeStyle;rounded=0;orthogonalLoop=1;jettySize=auto;html=1;" edge="1" parent="1" source="tjNxio7LxQfoufPtZ_6Z-5" target="tjNxio7LxQfoufPtZ_6Z-7">
          <mxGeometry relative="1" as="geometry" />
        </mxCell>
        <mxCell id="tjNxio7LxQfoufPtZ_6Z-12" style="edgeStyle=orthogonalEdgeStyle;rounded=0;orthogonalLoop=1;jettySize=auto;html=1;" edge="1" parent="1" source="tjNxio7LxQfoufPtZ_6Z-5" target="tjNxio7LxQfoufPtZ_6Z-9">
          <mxGeometry relative="1" as="geometry" />
        </mxCell>
        <mxCell id="tjNxio7LxQfoufPtZ_6Z-5" value="Iphone" style="rounded=0;whiteSpace=wrap;html=1;" vertex="1" parent="1">
          <mxGeometry x="350" y="20" width="120" height="60" as="geometry" />
        </mxCell>
        <mxCell id="tjNxio7LxQfoufPtZ_6Z-7" value="Aparelho TelefÃ´nico" style="swimlane;whiteSpace=wrap;html=1;" vertex="1" parent="1">
          <mxGeometry x="310" y="180" width="210" height="110" as="geometry" />
        </mxCell>
        <mxCell id="tjNxio7LxQfoufPtZ_6Z-8" value="&lt;div&gt;public void ligar();&lt;/div&gt;&lt;div&gt;public void atender() ;&lt;/div&gt;&lt;div&gt;public void iniciarCorreioDeVoz() ;&lt;/div&gt;" style="text;html=1;align=center;verticalAlign=middle;resizable=0;points=[];autosize=1;strokeColor=none;fillColor=none;" vertex="1" parent="tjNxio7LxQfoufPtZ_6Z-7">
          <mxGeometry y="35" width="200" height="60" as="geometry" />
        </mxCell>
        <mxCell id="tjNxio7LxQfoufPtZ_6Z-9" value="Navegador de Internet" style="swimlane;whiteSpace=wrap;html=1;" vertex="1" parent="1">
          <mxGeometry x="570" y="180" width="200" height="110" as="geometry" />
        </mxCell>
        <mxCell id="tjNxio7LxQfoufPtZ_6Z-10" value="&lt;div&gt;public void exibirPagina() ;&lt;/div&gt;&lt;div&gt;&amp;nbsp; &amp;nbsp; public void adicionarNovaAba() ;&lt;/div&gt;&lt;div&gt;&amp;nbsp; &amp;nbsp; public void atualizarPagina() ;&lt;/div&gt;" style="text;html=1;align=center;verticalAlign=middle;resizable=0;points=[];autosize=1;strokeColor=none;fillColor=none;" vertex="1" parent="tjNxio7LxQfoufPtZ_6Z-9">
          <mxGeometry x="-10" y="35" width="210" height="60" as="geometry" />
        </mxCell>
      </root>
    </mxGraphModel>
  </diagram>
</mxfile>
